<?xml version="1.0" encoding="UTF-8" standalone="no"?>
<!-- Created with Inkscape (http://www.inkscape.org/) -->

<svg
   xmlns:dc="http://purl.org/dc/elements/1.1/"
   xmlns:cc="http://creativecommons.org/ns#"
   xmlns:rdf="http://www.w3.org/1999/02/22-rdf-syntax-ns#"
   xmlns:svg="http://www.w3.org/2000/svg"
   xmlns="http://www.w3.org/2000/svg"
   xmlns:sodipodi="http://sodipodi.sourceforge.net/DTD/sodipodi-0.dtd"
   xmlns:inkscape="http://www.inkscape.org/namespaces/inkscape"
   width="44.510445mm"
   height="44.510445mm"
   viewBox="0 0 44.510445 44.510446"
   version="1.1"
   id="svg8"
   inkscape:version="0.92.4 (5da689c313, 2019-01-14)"
   sodipodi:docname="chip.svg">
  <defs
     id="defs2" />
  <sodipodi:namedview
     id="base"
     pagecolor="#ffffff"
     bordercolor="#666666"
     borderopacity="1.0"
     inkscape:pageopacity="0.0"
     inkscape:pageshadow="2"
     inkscape:zoom="0.98994949"
     inkscape:cx="-369.46526"
     inkscape:cy="180.88572"
     inkscape:document-units="mm"
     inkscape:current-layer="layer1"
     showgrid="false"
     fit-margin-top="0"
     fit-margin-left="0"
     fit-margin-right="0"
     fit-margin-bottom="0"
     inkscape:window-width="1920"
     inkscape:window-height="1017"
     inkscape:window-x="-8"
     inkscape:window-y="-8"
     inkscape:window-maximized="1" />
  <metadata
     id="metadata5">
    <rdf:RDF>
      <cc:Work
         rdf:about="">
        <dc:format>image/svg+xml</dc:format>
        <dc:type
           rdf:resource="http://purl.org/dc/dcmitype/StillImage" />
        <dc:title></dc:title>
      </cc:Work>
    </rdf:RDF>
  </metadata>
  <g
     inkscape:label="Layer 1"
     inkscape:groupmode="layer"
     id="layer1"
     transform="translate(-255.67268,-173.08192)">
    <g
       transform="matrix(3.6571404,0,0,3.6571404,-133.48272,-500.15766)"
       id="layer1-3"
       inkscape:label="Layer 1">
      <g
         transform="matrix(0.26458333,0,0,0.26458333,105.616,183.29532)"
         id="g841">
        <path
           inkscape:connector-curvature="0"
           d="m 49,14.5 v -2 H 42.0047 V 9.9989624 H 39.5 V 3 h -2 v 6.9989624 h -3 V 3 h -2 v 6.9989624 h -3 V 3 h -2 v 6.9989624 h -3 V 3 h -2 v 6.9989624 h -3 V 3 h -2 v 6.9989624 h -3 V 3 h -2 V 9.9989624 H 10.0047 V 41.998962 h 32 V 39.5 H 49 v -2 h -6.9953 v -3 H 49 v -2 h -6.9953 v -3 H 49 v -2 h -6.9953 v -3 H 49 v -2 h -6.9953 v -3 H 49 v -2 h -6.9953 v -3 z m -35.707031,0.207031 1.414062,-1.414062 1.430176,1.430176 -1.414062,1.414062 z M 26,36.5 h -7 c -1.654297,0 -3,-1.345703 -3,-3 v -7 h 2 v 7 c 0,0.551269 0.44873,1 1,1 h 7 z m 7,-18 h -7.293457 v -2 H 33 c 1.654297,0 3,1.345703 3,3 v 7 h -2 v -7 c 0,-0.55127 -0.448731,-1 -1,-1 z m 4.292969,20.207031 -1.429688,-1.429687 1.414063,-1.414063 1.429687,1.429688 z"
           id="path815" />
        <rect
           height="2"
           width="7"
           x="3"
           y="12.5"
           id="rect817" />
        <rect
           height="2"
           width="7"
           x="3"
           y="17.5"
           id="rect819" />
        <rect
           height="2"
           width="7"
           x="3"
           y="22.5"
           id="rect821" />
        <rect
           height="2"
           width="7"
           x="3"
           y="27.5"
           id="rect823" />
        <rect
           height="2"
           width="7"
           x="3"
           y="32.5"
           id="rect825" />
        <rect
           height="2"
           width="7"
           x="3"
           y="37.5"
           id="rect827" />
        <rect
           height="7"
           width="2"
           x="37.5"
           y="42"
           id="rect829" />
        <rect
           height="7"
           width="2"
           x="32.5"
           y="42"
           id="rect831" />
        <rect
           height="7"
           width="2"
           x="27.5"
           y="42"
           id="rect833" />
        <rect
           height="7"
           width="2"
           x="22.5"
           y="42"
           id="rect835" />
        <rect
           height="7"
           width="2"
           x="17.5"
           y="42"
           id="rect837" />
        <rect
           height="7"
           width="2"
           x="12.5"
           y="42"
           id="rect839" />
      </g>
    </g>
    <path
       style="fill:#333333;stroke-width:1.01015258"
       d="M 25.995727,83.804139 V 25.720368 H 30.541413 35.0871 V 13.093461 0.46655425 h 3.030457 3.030458 V 13.093461 25.720368 h 6.060915 6.060916 V 13.093461 0.46655425 h 3.535533 3.535534 V 13.093461 25.720368 h 5.555839 5.555839 V 13.093461 0.46655425 h 3.535534 3.535534 V 13.093461 25.720368 h 5.555839 5.555839 V 13.093461 0.46655425 h 3.535534 3.535534 V 13.093461 25.720368 h 6.060915 6.06092 V 13.093461 0.46655425 h 3.03045 3.03046 V 13.093461 25.720368 h 6.06092 6.06091 V 13.093461 0.46655425 h 3.03046 3.03046 V 13.093461 25.720368 h 4.54568 4.54569 v 4.545686 4.545687 h 12.62691 12.6269 v 3.535534 3.535534 h -12.67731 -12.67732 l 0.30295,5.808377 0.30295,5.808377 12.37436,0.28363 12.37437,0.283629 v 2.999366 2.999366 h -12.6269 -12.62691 v 6.060916 6.060915 h 12.62691 12.6269 v 3.030458 3.030457 h -12.6269 -12.62691 v 6.060916 6.060915 h 12.62691 12.6269 v 3.030457 3.030458 h -12.6269 -12.62691 v 6.060914 6.06092 h 12.62691 12.6269 v 3.03045 3.03046 h -12.6269 -12.62691 v 6.06092 6.06091 h 12.62691 12.6269 v 3.03046 3.03046 h -12.6269 -12.62691 v 4.54568 4.54569 H 84.079498 25.995727 Z m 102.345623,44.134581 2.7185,-2.8375 -2.84164,-2.72247 -2.84164,-2.72246 -2.9008,3.02779 -2.9008,3.02778 2.37886,2.53219 c 1.30837,1.3927 2.66915,2.53218 3.02394,2.53218 0.35479,0 1.8684,-1.27688 3.36358,-2.83751 z M 84.584574,118.6544 v -4.04061 H 71.149546 c -9.102597,0 -13.825925,-0.3909 -14.647212,-1.21218 -0.821288,-0.82129 -1.212183,-5.54462 -1.212183,-14.647213 V 85.319368 H 51.24954 47.20893 v 15.253302 15.2533 l 3.434519,3.43452 3.434519,3.43452 H 69.331271 84.584574 Z M 120.95007,71.19317 V 56.056818 l -2.94516,-3.298932 -2.94516,-3.298933 -16.247742,-0.322049 -16.247739,-0.322049 v 4.110121 4.110121 h 13.940105 c 9.495436,0 14.326596,0.386493 15.152286,1.212183 0.82129,0.821287 1.21219,5.544615 1.21219,14.647212 v 13.435029 h 4.04061 4.04061 z m -74.723669,-25.804232 2.400098,-2.554786 -3.023587,-3.023586 -3.023587,-3.023587 -2.918434,3.04619 -2.918434,3.046188 2.378863,2.532183 c 2.983578,3.175874 4.103617,3.17231 7.105081,-0.0226 z"
       id="path1009"
       inkscape:connector-curvature="0"
       transform="matrix(0.26458333,0,0,0.26458333,255.67268,173.08192)" />
    <path
       style="fill:#333333;stroke-width:1.01015258"
       d="m 6.5502903,60.327793 c 3.4723997,-0.197253 9.1545077,-0.197253 12.6269067,0 3.472399,0.197253 0.631345,0.358642 -6.313453,0.358642 -6.944799,0 -9.7858531,-0.161389 -6.3134537,-0.358642 z"
       id="path1011"
       inkscape:connector-curvature="0"
       transform="matrix(0.26458333,0,0,0.26458333,255.67268,173.08192)" />
    <path
       style="fill:#333333;stroke-width:1.01015258"
       d="M 0.74191317,38.347275 V 34.811741 H 12.863744 24.985574 v 3.535534 3.535534 H 12.863744 0.74191317 Z"
       id="path1013"
       inkscape:connector-curvature="0"
       transform="matrix(0.26458333,0,0,0.26458333,255.67268,173.08192)" />
    <path
       style="fill:#333333;stroke-width:1.01015258"
       d="m 35.0871,155.52497 v -12.62691 h 3.030457 3.030458 v 12.62691 12.62691 H 38.117557 35.0871 Z"
       id="path1015"
       inkscape:connector-curvature="0"
       transform="matrix(0.26458333,0,0,0.26458333,255.67268,173.08192)" />
    <path
       style="fill:#333333;stroke-width:1.01015258"
       d="M 0.74191317,56.530021 V 52.994487 H 12.863744 24.985574 v 3.535534 3.535533 H 12.863744 0.74191317 Z"
       id="path1017"
       inkscape:connector-curvature="0"
       transform="matrix(0.26458333,0,0,0.26458333,255.67268,173.08192)" />
    <path
       style="fill:#333333;stroke-width:1.01015258"
       d="M 0.74191317,75.217843 V 72.187385 H 12.863744 24.985574 V 75.217843 78.2483 H 12.863744 0.74191317 Z"
       id="path1019"
       inkscape:connector-curvature="0"
       transform="matrix(0.26458333,0,0,0.26458333,255.67268,173.08192)" />
    <path
       style="fill:#333333;stroke-width:1.01015258"
       d="M 0.74191317,93.400588 V 90.370131 H 12.863744 24.985574 v 3.030457 3.030458 H 12.863744 0.74191317 Z"
       id="path1021"
       inkscape:connector-curvature="0"
       transform="matrix(0.26458333,0,0,0.26458333,255.67268,173.08192)" />
    <path
       style="fill:#333333;stroke-width:1.01015258"
       d="m 0.74191317,111.58333 v -3.03045 H 12.863744 24.985574 v 3.03045 3.03046 H 12.863744 0.74191317 Z"
       id="path1023"
       inkscape:connector-curvature="0"
       transform="matrix(0.26458333,0,0,0.26458333,255.67268,173.08192)" />
    <path
       style="fill:#333333;stroke-width:1.01015258"
       d="m 6.5502903,133.05878 c 3.4723997,-0.19726 9.1545077,-0.19726 12.6269067,0 3.472399,0.19725 0.631345,0.35864 -6.313453,0.35864 -6.944799,0 -9.7858531,-0.16139 -6.3134537,-0.35864 z"
       id="path1025"
       inkscape:connector-curvature="0"
       transform="matrix(0.26458333,0,0,0.26458333,255.67268,173.08192)" />
    <path
       style="fill:#333333;stroke-width:1.01015258"
       d="m 71.452591,155.52497 v -12.62691 h 3.535534 3.535534 v 12.62691 12.62691 h -3.535534 -3.535534 z"
       id="path1027"
       inkscape:connector-curvature="0"
       transform="matrix(0.26458333,0,0,0.26458333,255.67268,173.08192)" />
    <path
       style="fill:#333333;stroke-width:1.01015258"
       d="m 53.269846,155.52497 v -12.62691 h 3.535533 3.535534 v 12.62691 12.62691 h -3.535534 -3.535533 z"
       id="path1029"
       inkscape:connector-curvature="0"
       transform="matrix(0.26458333,0,0,0.26458333,255.67268,173.08192)" />
    <path
       style="fill:#333333;stroke-width:1.01015258"
       d="m 0.74191317,129.76608 v -3.03046 H 12.863744 24.985574 v 3.03046 3.03046 H 12.863744 0.74191317 Z"
       id="path1031"
       inkscape:connector-curvature="0"
       transform="matrix(0.26458333,0,0,0.26458333,255.67268,173.08192)" />
    <path
       style="fill:#333333;stroke-width:1.01015258"
       d="m 115.28164,155.52497 c 0.002,-7.22259 0.16266,-10.04474 0.35755,-6.27144 0.19488,3.77329 0.19344,9.68269 -0.003,13.13198 -0.19665,3.44929 -0.3561,0.36205 -0.35433,-6.86054 z"
       id="path1033"
       inkscape:connector-curvature="0"
       transform="matrix(0.26458333,0,0,0.26458333,255.67268,173.08192)" />
    <path
       style="fill:#333333;stroke-width:1.01015258"
       d="m 108.82824,155.52497 v -12.62691 h 3.03045 3.03046 v 12.62691 12.62691 h -3.03046 -3.03045 z"
       id="path1035"
       inkscape:connector-curvature="0"
       transform="matrix(0.26458333,0,0,0.26458333,255.67268,173.08192)" />
    <path
       style="fill:#333333;stroke-width:1.01015258"
       d="m 89.635337,155.52497 v -12.62691 h 3.535534 3.535534 v 12.62691 12.62691 h -3.535534 -3.535534 z"
       id="path1037"
       inkscape:connector-curvature="0"
       transform="matrix(0.26458333,0,0,0.26458333,255.67268,173.08192)" />
    <path
       style="fill:#333333;stroke-width:1.01015258"
       d="m 127.01098,155.52497 v -12.62691 h 3.03046 3.03046 v 12.62691 12.62691 h -3.03046 -3.03046 z"
       id="path1039"
       inkscape:connector-curvature="0"
       transform="matrix(0.26458333,0,0,0.26458333,255.67268,173.08192)" />
  </g>
</svg>
