<?xml version="1.0" encoding="UTF-8" standalone="no"?>
<!-- Created with Inkscape (http://www.inkscape.org/) -->

<svg
   xmlns:dc="http://purl.org/dc/elements/1.1/"
   xmlns:cc="http://creativecommons.org/ns#"
   xmlns:rdf="http://www.w3.org/1999/02/22-rdf-syntax-ns#"
   xmlns:svg="http://www.w3.org/2000/svg"
   xmlns="http://www.w3.org/2000/svg"
   xmlns:sodipodi="http://sodipodi.sourceforge.net/DTD/sodipodi-0.dtd"
   xmlns:inkscape="http://www.inkscape.org/namespaces/inkscape"
   width="259.29166mm"
   height="259.29166mm"
   viewBox="0 0 259.29166 259.29166"
   version="1.1"
   id="svg8"
   sodipodi:docname="previous.svg"
   inkscape:version="0.92.4 (5da689c313, 2019-01-14)">
  <defs
     id="defs2" />
  <sodipodi:namedview
     id="base"
     pagecolor="#ffffff"
     bordercolor="#666666"
     borderopacity="1.0"
     inkscape:pageopacity="0.0"
     inkscape:pageshadow="2"
     inkscape:zoom="0.35"
     inkscape:cx="645.71429"
     inkscape:cy="524.28571"
     inkscape:document-units="mm"
     inkscape:current-layer="layer1"
     showgrid="false"
     fit-margin-top="0"
     fit-margin-left="0"
     fit-margin-right="0"
     fit-margin-bottom="0"
     inkscape:window-width="1920"
     inkscape:window-height="1017"
     inkscape:window-x="-8"
     inkscape:window-y="-8"
     inkscape:window-maximized="1" />
  <metadata
     id="metadata5">
    <rdf:RDF>
      <cc:Work
         rdf:about="">
        <dc:format>image/svg+xml</dc:format>
        <dc:type
           rdf:resource="http://purl.org/dc/dcmitype/StillImage" />
        <dc:title></dc:title>
      </cc:Work>
    </rdf:RDF>
  </metadata>
  <g
     inkscape:label="Layer 1"
     inkscape:groupmode="layer"
     id="layer1"
     transform="translate(187.85417,-28.25893)">
    <path
       style="fill:#f2f2f2;stroke-width:2.85714293"
       d="M 412.12848,596.70005 305.7141,490.2573 412.85188,383.14809 519.98965,276.03888 l 20.7042,20.70419 20.70419,20.7042 -86.40762,86.40761 -86.40761,86.40762 86.37568,86.4105 86.37567,86.41051 -19.87617,20.02966 c -10.93189,11.01631 -20.55993,20.02965 -21.39565,20.02965 -0.83572,0 -49.40595,-47.89925 -107.93386,-106.44277 z"
       id="path839"
       inkscape:connector-curvature="0"
       transform="matrix(0.26458333,0,0,0.26458333,-187.85417,28.25893)" />
    <path
       style="fill:#f2f2f2;stroke-width:0.75595242"
       d="m -62.606586,286.37773 c -0.13536,-0.13536 -2.88652,-0.42076 -6.11368,-0.63424 -3.22716,-0.21346 -6.6045,-0.55809 -7.5052,-0.76581 -0.9007,-0.20774 -2.99835,-0.56782 -4.66144,-0.80018 -4.60035,-0.64275 -5.63795,-0.8754 -11.1503,-2.50014 -2.80648,-0.82719 -5.10268,-1.31626 -5.10268,-1.08681 0,0.22945 -0.51027,-0.006 -1.13393,-0.5239 -0.62366,-0.51759 -1.13393,-0.68768 -1.13393,-0.37797 0,0.3097 -0.56255,0.0962 -1.250114,-0.47441 -0.68757,-0.57062 -1.36175,-0.96723 -1.49818,-0.88135 -0.13644,0.0859 -1.39084,-0.32133 -2.78756,-0.90492 -1.39672,-0.58359 -3.01874,-1.16412 -3.6045,-1.29008 -0.58575,-0.12595 -1.23509,-0.3991 -1.44298,-0.60698 -0.20789,-0.20789 -2.07887,-1.1792 -4.15774,-2.15848 -2.07887,-0.97928 -5.99092,-3.07073 -8.69345,-4.64768 -2.70253,-1.57694 -5.15418,-2.81678 -5.44811,-2.7552 -0.29393,0.0616 -1.04852,-0.5684 -1.67685,-1.39995 -0.62834,-0.83155 -1.15325,-1.19175 -1.16647,-0.80046 -0.0132,0.3913 -0.44927,0.20381 -0.96899,-0.41665 -1.08649,-1.29708 -7.82792,-6.72039 -8.35376,-6.72039 -1.05128,0 -17.30625,-16.14671 -17.50349,-17.38691 -0.14321,-0.9005 -6.08705,-8.31547 -6.66568,-8.31547 -0.35157,0 -0.44189,-0.31927 -0.20072,-0.70949 0.24117,-0.39023 -0.16398,-1.06023 -0.90032,-1.48892 -0.73635,-0.42868 -1.06052,-0.78977 -0.72038,-0.80241 0.63957,-0.0238 -2.29829,-4.57998 -3.48141,-5.39917 -0.36737,-0.25438 -0.69538,-0.76465 -0.7289,-1.13393 -0.11546,-1.27191 -6.17148,-13.52355 -6.95879,-14.07802 -0.43375,-0.30547 -0.54874,-0.5606 -0.25554,-0.56696 0.43536,-0.009 -1.57798,-6.1837 -3.70135,-11.35086 -0.25629,-0.62366 -0.60565,-1.9759 -0.77637,-3.00497 -0.17072,-1.02908 -0.62573,-2.251 -1.01114,-2.71539 -0.38542,-0.46439 -0.53943,-1.00567 -0.34226,-1.20283 0.19717,-0.19717 0.003,-1.52659 -0.43106,-2.95426 -0.43425,-1.42767 -0.91173,-3.44621 -1.06107,-4.48565 -0.14934,-1.03943 -0.46593,-3.25059 -0.70353,-4.91369 -1.77041,-12.39199 -1.64952,-28.83975 0.28566,-38.86492 0.43434,-2.2501 0.62996,-4.25085 0.4347,-4.44611 -0.19526,-0.19526 -0.0263,-0.96926 0.3755,-1.72 0.40178,-0.75074 0.85535,-2.32186 1.00793,-3.49138 0.15258,-1.16952 0.46562,-2.63666 0.69564,-3.26032 0.71145,-1.92902 3.69143,-11.34408 3.89704,-12.31249 0.10705,-0.50417 1.14167,-2.95775 2.29915,-5.4524 1.15749,-2.49464 2.11517,-4.96093 2.12819,-5.48065 0.013,-0.51972 0.32721,-0.94494 0.69823,-0.94494 0.37101,0 0.48229,-0.311117 0.24727,-0.691387 -0.23501,-0.38026 -0.16365,-0.80548 0.15858,-0.94494 0.32224,-0.13945 2.07196,-2.80489 3.88828,-5.923194 1.81631,-3.118306 4.12344,-6.775225 5.12694,-8.12649 1.0035,-1.351264 1.65261,-2.456844 1.44246,-2.456844 -0.21014,0 0.36786,-0.79643 1.28445,-1.769845 2.61064,-2.772484 8.46619,-9.867847 8.5061,-10.307116 0.0593,-0.652537 7.86014,-8.123132 8.16446,-7.818806 0.15453,0.154528 1.59524,-1.173786 3.20158,-2.951815 1.60634,-1.778027 2.9894,-3.062685 3.07347,-2.854799 0.0841,0.207886 1.30556,-0.642559 2.71444,-1.889882 1.40887,-1.24732 2.87999,-2.419818 3.26915,-2.60555 2.5079,-1.196923 7.88911,-4.910955 7.88911,-5.444946 0,-0.353625 0.25514,-0.58359 0.56697,-0.511032 0.94015,0.218756 4.7247,-1.836435 4.7247,-2.565736 0,-0.373574 0.34018,-0.468983 0.75595,-0.212021 0.41578,0.256963 0.75595,0.08687 0.75595,-0.377976 0,-0.464849 0.34018,-0.634939 0.75596,-0.377976 0.41577,0.256963 0.75595,0.08687 0.75595,-0.377976 0,-0.464849 0.34018,-0.634939 0.75595,-0.377976 0.41578,0.256962 0.75595,0.08687 0.75595,-0.377976 0,-0.46485 0.34018,-0.634939 0.75596,-0.377977 0.41577,0.256963 0.75595,0.163646 0.75595,-0.207369 0,-0.371017 0.42522,-0.700469 0.94494,-0.732116 0.51972,-0.03165 3.98007,-1.27897 7.68968,-2.771826 3.70961,-1.492856 7.004204,-2.714284 7.321334,-2.714284 0.31712,0 1.53422,-0.395111 2.70466,-0.878024 1.17045,-0.482914 2.37141,-0.827026 2.66882,-0.764694 0.29741,0.06233 1.48803,-0.253337 2.64583,-0.701489 1.1578,-0.448151 3.29572,-0.963608 4.75093,-1.14546 1.45521,-0.181851 3.32619,-0.548252 4.15774,-0.814223 1.60869,-0.514544 1.85024,-0.547432 9.4494,-1.286594 6.49084,-0.631358 20.40104,-0.648254 26.08036,-0.03168 2.49464,0.270831 5.55625,0.606513 6.80357,0.745961 4.7949,0.536059 18.21159,4.252813 25.94106,7.186311 4.4422398,1.685927 8.4088798,3.13152 8.8147498,3.212428 0.40588,0.08091 1.1987,0.575455 1.76184,1.098993 0.56314,0.523539 1.33663001,0.758597 1.71889001,0.522351 0.38225,-0.236246 0.69501,-0.04921 0.69501,0.415642 0,0.464849 0.34018,0.634939 0.75594999,0.377976 0.41577,-0.256963 0.75595,-0.08687 0.75595,0.377976 0,0.46485 0.34018,0.634939 0.75595,0.377976 0.41578,-0.256962 0.75596,-0.180294 0.75596,0.170373 0,0.908637 4.22634,3.288801 4.80761,2.707525 0.26623,-0.266226 0.48405,-0.138022 0.48405,0.2849 0,0.61504 5.9329602,4.792048 8.0921002,5.697122 0.27752,0.116329 1.54689,1.1343 2.82082,2.262156 1.27394,1.127855 2.57725,2.058193 2.89625,2.067417 0.31901,0.0092 1.62194,1.203462 2.89541,2.653863 1.27347,1.450401 2.54326,2.56458 2.82178,2.475958 0.44536,-0.141716 3.48862,2.914319 11.93386,11.983968 1.29583,1.391637 2.19819,2.688109 2.00526,2.881045 -0.19294,0.19294 0.36268,0.796375 1.23472,1.34097 0.87203,0.544594 1.58552,1.401709 1.58552,1.904695 0,0.502989 0.42522,1.186561 0.94494,1.519053 0.51971,0.332488 1.44018,1.454972 2.04547,2.494407 3.75738,6.452356 8.42156,14.111946 9.04235,14.849506 0.40015,0.47542 0.52121,1.07073 0.26901,1.32292 -0.25218,0.25219 -0.11834,0.458527 0.29744,0.458527 0.41577,0 0.77316,0.42522 0.79421,0.94494 0.021,0.51972 0.98537,2.98601 2.14295,5.48065 1.15759,2.49465 2.17838,4.8759 2.26844,5.29167 0.39536,1.82529 3.61179,12.16475 3.98916,12.82345 0.22945,0.40052 0.53911,1.91665 0.68812,3.36918 0.14901,1.45254 0.5914,3.02712 0.9831,3.49908 0.39169,0.47197 0.52327,1.04701 0.29239,1.27788 -0.23086,0.23087 -0.0605,2.24065 0.37849,4.46616 1.93744,9.8209 2.08247,24.58944 0.38122,38.8202 -0.14912,1.24732 -0.99806,5.32947 -1.88654,9.07143 -0.88849,3.74196 -1.70424,7.31384 -1.81278,7.9375 -0.10854,0.62366 -0.40196,1.6442 -0.65204,2.26786 -2.31084,5.76267 -4.12446,11.34143 -3.69009,11.35086 0.2932,0.006 0.19291,0.26149 -0.22287,0.56696 -0.88082,0.64713 -7.34493,13.48442 -7.17028,14.23971 0.0649,0.28036 -0.18272,0.71786 -0.55008,0.97224 -1.18312,0.81919 -4.12098,5.37539 -3.48141,5.39917 0.34014,0.0126 0.016,0.37373 -0.72037,0.80241 -0.73636,0.42869 -1.1415,1.09869 -0.90034,1.48892 0.24117,0.39022 0.15085,0.70949 -0.20071,0.70949 -0.61918,0 -5.70154,6.4097 -6.29376,7.9375 -0.16116,0.41577 -1.27022,1.57819 -2.46455,2.58316 -1.19433,1.00497 -2.99224,3.12733 -3.99535,4.71637 -1.00312,1.58904 -2.97214,3.65831 -4.37559,4.59839 -2.21649,1.48467 -6.07665,4.6061 -14.25976,11.53087 -1.14338,0.96755 -2.08969,1.53475 -2.10291,1.26044 -0.0132,-0.27431 -0.52349,0.16158 -1.13393,0.96865 -0.61044,0.80707 -1.10988,1.22747 -1.10988,0.93421 0,-0.45846 -5.7331802,2.92647 -6.8035802,4.0169 -0.51496,0.52461 -12.2845,6.28489 -13.22916,6.47467 -0.41578,0.0835 -2.11667,0.75785 -3.7797598,1.4985 -1.6631,0.74066 -3.27895,1.41992 -3.59078,1.50948 -0.31183,0.0895 -0.65201,0.23137 -0.75595,0.31515 -0.10394,0.0838 -0.69926,0.26583 -1.32292,0.40455 -0.62366,0.13871 -4.53571,1.10783 -8.69345,2.15358 -6.66661,1.6768 -11.34885,2.41771 -24.56845,3.88768 -5.08897,0.56587 -12.05619,0.93745 -12.33575,0.65788 z m 13.0917,-16.18509 c 5.19717,-0.39595 10.29985,-0.89378 11.33929,-1.10629 1.03943,-0.21249 3.0805,-0.58354 4.53571,-0.82454 5.04624,-0.83571 16.29864,-4.99095 25.3243998,-9.35167 22.5585502,-10.899 41.0080602,-29.22548 51.7922202,-51.44685 1.70659,-3.51651 3.42314,-6.98435 3.81456,-7.70632 0.39142,-0.72196 0.71168,-1.69109 0.71168,-2.15361 0,-0.46252 0.47645,-1.9129 1.05878,-3.22305 0.58232,-1.31016 1.27826,-3.23255 1.54654,-4.27199 0.26826,-1.03943 0.95221,-3.59077 1.51988,-5.66964 1.0226,-3.7449 1.36779,-5.53403 2.47945,-12.85119 0.73753,-4.85457 0.74426,-23.80707 0.0102,-28.72619 -2.95396,-19.79523 -8.90591,-34.86637 -20.38875,-51.627019 -4.96052,-7.240509 -18.11876,-20.580885 -25.1576602,-25.505886 -2.91042,-2.036371 -5.46176,-3.908984 -5.66965,-4.161362 -0.20788,-0.252378 -0.88824,-0.695986 -1.5119,-0.985792 -0.62366,-0.289809 -2.49463999,-1.358585 -4.15774,-2.375062 -2.78477,-1.702035 -4.13536,-2.373553 -10.5833298,-5.262038 -5.29393,-2.371513 -6.25558,-2.756156 -10.39435,-4.157562 -2.3907,-0.809501 -4.34672,-1.308084 -4.34672,-1.107963 0,0.200121 -0.59531,0.04579 -1.32292,-0.342968 -0.7276,-0.388754 -2.51354,-0.904831 -3.96875,-1.146838 -1.45521,-0.242007 -3.49629,-0.622237 -4.53572,-0.844956 -4.84427,-1.037977 -11.05107,-1.479794 -20.78869,-1.479794 -12.5699,0 -17.53655,0.535126 -27.40328,2.952536 -0.93549,0.229201 -2.43108,0.576883 -3.32353,0.772627 -8.09987,1.77656 -22.019124,8.405064 -32.969554,15.70047 -13.85249,9.228815 -27.68497,24.459364 -36.24495,39.908267 -3.10684,5.60718 -8.29374,17.8848 -9.28873,21.98685 -0.44203,1.82237 -0.95437,3.82366 -1.13854,4.44732 -1.25452,4.24824 -1.94007,7.95753 -2.44501,13.22917 -0.66712,6.96484 -0.63501,24.10165 0.0545,29.10416 0.2579,1.87099 0.66894,4.91275 0.91344,6.75947 0.24449,1.84673 0.77375,3.97284 1.17614,4.72471 0.40238,0.75186 0.55797,1.36702 0.34574,1.36702 -0.21222,0 -0.0228,0.93549 0.42092,2.07886 0.44372,1.14338 0.96621,2.9214 1.16108,3.95115 0.19487,1.02976 0.87862,3.07083 1.51944,4.53572 0.64083,1.46489 1.43526,3.34379 1.76539,4.17533 0.33014,0.83155 2.04084,4.40343 3.80156,7.9375 10.92594,21.93031 28.2445,39.54243 49.61931,50.46039 7.17615,3.66547 20.143444,8.69708 24.821754,9.63142 2.21698,0.44277 3.33876,0.68575 7.18155,1.5556 1.03944,0.23528 3.40556,0.5915 5.25806,0.79161 1.8525,0.2001 3.49941,0.49505 3.65981,0.65545 0.52877,0.52876 10.20153,0.33487 19.80832,-0.39705 z"
       id="path841"
       inkscape:connector-curvature="0" />
    <path
       style="fill:#f9f9f9;stroke-width:2.85714293"
       d="M 438.63694,972.9276 C 405.94834,969.0928 336.01769,953.68102 330,948.98548 328.42857,947.75931 320.52223,944.59702 312.43037,941.9582 288.88206,934.27885 221.69221,897.227 197.75159,878.71857 155.71103,846.21711 93.227012,778.99902 78.28778,750.20362 75.869026,745.54148 72.283552,739.79557 70.320054,737.43491 62.939606,728.56162 37.334926,671.98234 27.002137,641.71425 10.656517,593.83262 5.7422704,565.5578 3.7729344,508.06174 1.2448941,434.25397 6.3703761,396.94574 28.196186,330.28568 41.567569,289.447 50.36434,270.74542 73.6655,233.61972 120.54749,158.92273 169.01303,111.11375 245.56703,64.046962 267.35578,50.650839 276.91311,46.168322 310,33.827047 386.8216,5.1729085 405.98786,1.7865468 491.42857,1.7716462 c 67.76712,-0.011829 71.00252,0.2480229 101.42857,8.1459526 37.58232,9.7555362 90.26192,27.9510432 114.14503,39.4256312 56.43872,27.115849 111.10329,71.34811 167.61986,135.63087 2.95788,3.36435 5.37797,7.13862 5.37797,8.38728 0,1.24866 2.41894,4.92459 5.37543,8.16873 9.35631,10.2666 42.40874,65.97068 50.36011,84.87317 9.03946,21.48914 26.09426,72.81574 30.24583,91.02526 14.41383,63.22128 14.41854,153.58488 0.0114,215.71428 -4.7372,20.42858 -12.29726,47.42858 -16.80009,60 -9.20148,25.68952 -33.12802,75.46443 -42.81422,89.06746 -3.50809,4.92663 -6.39752,10.04474 -6.42095,11.3736 -0.0228,1.32886 -8.46268,12.7018 -18.75383,25.27323 -10.29114,12.57143 -24.5656,30.17849 -31.721,39.1268 -11.36397,14.21123 -88.37394,79.44463 -93.78691,79.44463 -1.10546,0 -7.82029,3.92134 -14.9218,8.71408 -46.49817,31.38126 -115.35089,54.39515 -190.774,63.76589 -54.34843,6.75234 -74.81097,7.30711 -111.36306,3.01909 z m 69.93449,-58.5796 c 56.25003,-3.66429 80.80908,-7.99489 113.84908,-20.07543 72.74798,-26.59912 120.36046,-56.35786 170.62269,-106.64257 58.46111,-58.48723 93.21137,-120.07852 114.56723,-203.0586 6.32463,-24.57498 7.54988,-36.576 8.75957,-85.79766 1.24846,-50.79989 0.70977,-60.74623 -4.79709,-88.57143 C 899.739,350.40734 879.03789,299.79777 845.57706,248.85711 823.74874,215.62578 766.25486,157.12218 732.09531,133.38238 688.14746,102.84002 624.85926,75.924785 572.85714,65.661507 c -13.6014,-2.684411 -41.02394,-3.91876 -85.71428,-3.858185 -61.82886,0.0838 -67.54312,0.547851 -96.64532,7.848497 -72.81503,18.266548 -138.81202,54.588051 -192.59345,105.993951 -62.90852,60.12985 -105.347987,131.475 -125.233524,210.53048 -6.330943,25.16886 -7.737586,38.30663 -9.012374,84.17389 -2.374538,85.43643 5.705428,127.81151 36.761198,192.79268 28.23573,59.08055 52.03971,92.4816 95.7016,134.28572 64.71866,61.96494 138.27038,97.36066 242.45044,116.67588 19.78874,3.66886 17.53914,3.66103 70,0.24343 z"
       id="path843"
       inkscape:connector-curvature="0"
       transform="matrix(0.26458333,0,0,0.26458333,-187.85417,28.25893)" />
    <path
       style="fill:#f9f9f9;stroke-width:2.85714293"
       d="M 412.12848,596.70005 305.7141,490.2573 412.85188,383.14809 519.98965,276.03888 l 20.7042,20.70419 20.70419,20.7042 -86.40762,86.40761 -86.40761,86.40762 86.37568,86.4105 86.37567,86.41051 -19.87617,20.02966 c -10.93189,11.01631 -20.55993,20.02965 -21.39565,20.02965 -0.83572,0 -49.40595,-47.89925 -107.93386,-106.44277 z"
       id="path845"
       inkscape:connector-curvature="0"
       transform="matrix(0.26458333,0,0,0.26458333,-187.85417,28.25893)" />
  </g>
</svg>
